<?xml version="1.0" standalone="no"?>
<!DOCTYPE svg PUBLIC "-//W3C//DTD SVG 20010904//EN"
 "http://www.w3.org/TR/2001/REC-SVG-20010904/DTD/svg10.dtd">
<svg version="1.0" xmlns="http://www.w3.org/2000/svg"
 width="75.000000pt" height="91.000000pt" viewBox="0 0 75.000000 91.000000"
 preserveAspectRatio="xMidYMid meet">

<g transform="translate(0.000000,91.000000) scale(0.100000,-0.100000)"
fill="#000000" stroke="none">
<path d="M288 675 c-3 -3 -54 -25 -114 -50 l-109 -45 88 0 c80 0 87 2 87 20 0
16 7 20 30 20 27 0 30 3 30 30 0 30 -2 35 -12 25z"/>
<path d="M79 492 c16 -31 43 -111 60 -176 35 -135 77 -229 105 -234 26 -5 34
12 41 88 4 36 11 77 17 92 13 36 55 50 96 32 34 -14 38 -23 47 -124 7 -80 17
-99 42 -84 30 19 72 113 104 239 17 66 42 141 55 167 13 26 24 50 24 53 0 3
-40 5 -90 5 -89 0 -90 0 -90 -25 0 -21 -5 -25 -30 -25 -27 0 -30 -3 -30 -30
l0 -30 -60 0 c-60 0 -60 0 -60 29 0 26 -4 30 -32 33 -25 2 -34 8 -36 26 -3 21
-8 22 -98 22 l-94 0 29 -58z"/>
</g>
</svg>
